<svg width="25" height="25" viewBox="0 0 25 25" fill="none" xmlns="http://www.w3.org/2000/svg">
<rect width="24" height="24" transform="translate(0.685547 0.685242)" fill="white"/>
<path d="M11.7888 4.50187C12.1557 3.7587 13.2154 3.7587 13.5823 4.50187L15.5431 8.47433C15.6886 8.76918 15.9698 8.97364 16.2952 9.02119L20.6818 9.66236C21.5017 9.7822 21.8285 10.79 21.2349 11.3682L18.0623 14.4582C17.8265 14.688 17.7188 15.0191 17.7745 15.3436L18.523 19.7079C18.6631 20.5248 17.8055 21.1478 17.0719 20.762L13.151 18.7C12.8596 18.5468 12.5115 18.5468 12.2201 18.7L8.29918 20.762C7.56555 21.1478 6.708 20.5248 6.84812 19.7079L7.59663 15.3436C7.65229 15.0191 7.54463 14.688 7.30876 14.4582L4.13623 11.3682C3.54263 10.79 3.86942 9.7822 4.68933 9.66236L9.07591 9.02119C9.40127 8.97364 9.68245 8.76918 9.82799 8.47433L11.7888 4.50187Z" fill="#268AFF"/>
</svg>
